<?xml version="1.0" encoding="utf-8"?>
<!-- Generator: Adobe Illustrator 26.3.1, SVG Export Plug-In . SVG Version: 6.00 Build 0)  -->
<svg version="1.1" id="Layer_1" xmlns="http://www.w3.org/2000/svg" xmlns:xlink="http://www.w3.org/1999/xlink" x="0px" y="0px"
	 viewBox="0 0 600 600" style="enable-background:new 0 0 600 600;" xml:space="preserve">
<style type="text/css">
	.st0{fill:#231F20;}
	.st1{fill:#414042;}
	.st2{fill:#FFFFFF;}
	.st3{fill:#58595B;}
</style>
<g>
	<path class="st0" d="M143.2,325.9c0,4.6-3.7,8.3-8.2,8.3H70.1c-4.6,0-8.2-3.7-8.2-8.3v-4.1c0-4.6,3.7-8.2,8.2-8.2H135
		c4.6,0,8.2,3.7,8.2,8.2V325.9z"/>
	<path class="st1" d="M68.8,323.8c0-1.6,1.3-2.9,2.9-2.9c1.6,0,2.9,1.3,2.9,2.9c0,1.6-1.3,2.9-2.9,2.9
		C70.1,326.7,68.8,325.4,68.8,323.8z"/>
	<path class="st1" d="M78.7,323.8c0-1.6,1.3-2.9,2.9-2.9c1.6,0,2.9,1.3,2.9,2.9c0,1.6-1.3,2.9-2.9,2.9
		C80,326.7,78.7,325.4,78.7,323.8z"/>
	<path class="st1" d="M88.6,323.8c0-1.6,1.3-2.9,2.9-2.9c1.6,0,2.9,1.3,2.9,2.9c0,1.6-1.3,2.9-2.9,2.9
		C89.9,326.7,88.6,325.4,88.6,323.8z"/>
	<path class="st1" d="M123.5,323.8c0-2.9,2.4-5.3,5.3-5.3c2.9,0,5.3,2.4,5.3,5.3c0,2.9-2.4,5.3-5.3,5.3
		C125.9,329,123.5,326.7,123.5,323.8z"/>
	<path class="st0" d="M73.5,311.5l-0.7-36.6c0.4-0.3,0.6-0.8,0.6-1.3c0-0.9-0.7-1.7-1.7-1.7c-0.9,0-1.7,0.7-1.7,1.7
		c0,0.5,0.2,1,0.6,1.3L70,311.5H73.5z"/>
	<path class="st0" d="M133.2,311.5l-0.7-36.6c0.4-0.3,0.6-0.8,0.6-1.3c0-0.9-0.7-1.7-1.7-1.7c-0.9,0-1.7,0.7-1.7,1.7
		c0,0.5,0.2,1,0.6,1.3l-0.7,36.6H133.2z"/>
	<g>
		<path class="st0" d="M77,266.8c-0.5,0.5-0.5,1.4,0,1.9c2.7,2.7,2.7,7.1,0.1,9.8c-0.5,0.5-0.5,1.4,0,1.9c0.5,0.5,1.4,0.5,1.9,0
			c0,0,0,0,0,0c3.7-3.7,3.7-9.8-0.1-13.5C78.4,266.2,77.6,266.2,77,266.8z"/>
	</g>
	<g>
		<path class="st0" d="M81,262.8c-0.5,0.5-0.5,1.4,0,1.9c2.4,2.3,3.7,5.5,3.7,8.8c0,3.3-1.3,6.5-3.6,8.8c-0.5,0.5-0.5,1.4,0,1.9
			c0.5,0.5,1.4,0.5,1.9,0c2.8-2.9,4.4-6.7,4.4-10.7c0-4-1.6-7.8-4.5-10.7C82.3,262.3,81.5,262.3,81,262.8z"/>
	</g>
	<g>
		<path class="st0" d="M66.3,280.2c0.5-0.5,0.5-1.4,0-1.9c-2.7-2.7-2.7-7.1-0.1-9.8c0.5-0.5,0.5-1.4,0-1.9c-0.5-0.5-1.4-0.5-1.9,0
			c0,0,0,0,0,0c-3.7,3.7-3.7,9.8,0.1,13.5C65,280.8,65.8,280.7,66.3,280.2z"/>
	</g>
	<g>
		<path class="st0" d="M62.4,284.2c0.5-0.5,0.5-1.4,0-1.9c-2.4-2.3-3.7-5.5-3.7-8.8c0-3.3,1.3-6.5,3.6-8.8c0.5-0.5,0.5-1.4,0-1.9
			c-0.5-0.5-1.4-0.5-1.9,0c-2.8,2.9-4.4,6.7-4.4,10.7c0,4,1.6,7.8,4.5,10.7C61.1,284.7,61.9,284.7,62.4,284.2z"/>
	</g>
	<g>
		<path class="st0" d="M124.7,271.1c0.5,0.5,1.4,0.5,1.9,0c2.7-2.7,7.1-2.7,9.8-0.1c0.5,0.5,1.4,0.5,1.9,0c0.5-0.5,0.5-1.4,0-1.9
			c0,0,0,0,0,0c-3.8-3.7-9.8-3.7-13.5,0.1C124.2,269.8,124.2,270.6,124.7,271.1z"/>
	</g>
	<g>
		<path class="st0" d="M120.7,267.2c0.5,0.5,1.4,0.5,1.9,0c2.3-2.4,5.5-3.7,8.8-3.7c3.3,0,6.5,1.3,8.8,3.6c0.5,0.5,1.4,0.5,1.9,0
			c0.5-0.5,0.5-1.4,0-1.9c-2.9-2.8-6.7-4.4-10.7-4.4c-4,0-7.8,1.6-10.7,4.5C120.2,265.9,120.2,266.7,120.7,267.2z"/>
	</g>
</g>
<g>
	<g>
		<path class="st0" d="M285,286.2c1,1,2.7,1,3.7,0c5.3-5.3,13.9-5.4,19.2-0.1c1,1,2.6,1,3.6,0c1-1,1-2.6,0-3.6c0,0,0,0,0,0
			c-7.3-7.3-19.2-7.2-26.5,0.1C284,283.6,284,285.2,285,286.2z"/>
	</g>
	<g>
		<path class="st0" d="M277.3,278.6c1,1,2.6,1,3.6,0c4.6-4.6,10.7-7.2,17.2-7.2c6.5,0,12.7,2.5,17.3,7.1c1,1,2.6,1,3.7,0
			c1-1,1-2.6,0-3.7c-5.6-5.6-13.1-8.6-21-8.6c-7.9,0-15.3,3.2-20.9,8.8C276.2,275.9,276.2,277.6,277.3,278.6z"/>
	</g>
	<path class="st0" d="M325.3,293.5C325.3,293.5,325.3,293.5,325.3,293.5c-0.1,0-0.1,0-0.2,0c-0.1,0-0.1,0-0.2,0
		c-0.5-0.1-1.1-0.2-1.6-0.2c-16.4-2.2-31.9-2.2-48.3,0c-0.4,0-0.9,0.1-1.3,0.2c-9.8,1.8-16.3,11.8-14.2,21.5
		c1.7,8.1,9.4,14.7,17.6,13.8c0,0,0,0,0,0c0.3-0.1,0.6-0.1,0.9-0.2c0,0,0.1,0,0.1,0c0,0,0.1,0,0.1,0c14-2.8,27.1-2.8,40.9-0.3
		c0.5,0.1,1,0.3,1.5,0.4c0.4,0.1,0.8,0.1,1.2,0.2c0.1,0,0.1,0,0.2,0c0,0,0,0,0,0c8.1,0.7,15.6-5.8,17.3-13.8
		C341.2,305.3,334.9,295.4,325.3,293.5z"/>
	<g>
		<g>
			<path class="st2" d="M277.3,324.4c-7.1,0-12.9-5.8-12.9-12.9c0-7.1,5.8-12.9,12.9-12.9c7.1,0,12.9,5.8,12.9,12.9
				C290.2,318.6,284.4,324.4,277.3,324.4z M277.3,300.2c-6.3,0-11.3,5.1-11.3,11.3c0,6.3,5.1,11.3,11.3,11.3
				c6.2,0,11.3-5.1,11.3-11.3C288.6,305.2,283.5,300.2,277.3,300.2z"/>
		</g>
	</g>
	<polygon class="st2" points="274.3,307.8 277.3,302.7 280.2,307.8 	"/>
	<polygon class="st2" points="280.2,315.4 277.3,320.5 274.3,315.4 	"/>
	<polygon class="st2" points="273.5,314.6 268.4,311.6 273.5,308.7 	"/>
	<polygon class="st2" points="281.1,308.7 286.2,311.6 281.1,314.6 	"/>
	<path class="st2" d="M308.9,305.5c0-1.8,1.5-3.3,3.3-3.3c1.8,0,3.3,1.5,3.3,3.3c0,1.8-1.5,3.3-3.3,3.3
		C310.3,308.8,308.9,307.3,308.9,305.5z"/>
	<path class="st2" d="M320.1,305.5c0-1.8,1.5-3.3,3.3-3.3c1.8,0,3.3,1.5,3.3,3.3c0,1.8-1.5,3.3-3.3,3.3
		C321.6,308.8,320.1,307.3,320.1,305.5z"/>
	<path class="st2" d="M313.3,315.7c0-1.8,1.5-3.3,3.3-3.3c1.8,0,3.3,1.5,3.3,3.3c0,1.8-1.5,3.3-3.3,3.3
		C314.8,319,313.3,317.5,313.3,315.7z"/>
	<path class="st2" d="M324.6,315.7c0-1.8,1.5-3.3,3.3-3.3c1.8,0,3.3,1.5,3.3,3.3c0,1.8-1.5,3.3-3.3,3.3
		C326,319,324.6,317.5,324.6,315.7z"/>
</g>
<g>
	<g>
		<path class="st0" d="M488.8,269.1c0.8,0.8,2,0.8,2.8,0c4-4,10.6-4.1,14.6-0.1c0.8,0.8,2,0.8,2.8,0c0.8-0.8,0.8-2,0-2.8
			c0,0,0,0,0,0c-5.6-5.5-14.6-5.5-20.2,0.1C488,267.1,488,268.3,488.8,269.1z"/>
	</g>
	<g>
		<path class="st0" d="M482.9,263.3c0.8,0.8,2,0.8,2.8,0c3.5-3.5,8.2-5.5,13.1-5.5c5,0,9.7,1.9,13.2,5.4c0.8,0.8,2,0.8,2.8,0
			c0.8-0.8,0.8-2,0-2.8c-4.3-4.2-9.9-6.6-16-6.5c-6,0-11.7,2.4-15.9,6.7C482.1,261.3,482.1,262.5,482.9,263.3z"/>
	</g>
	<path class="st0" d="M543.7,336c0-2.9-2.3-5.2-5.2-5.2h-79.4c-2.9,0-5.2,2.3-5.2,5.2l0,0c0,2.9,2.3,5.2,5.2,5.2h79.4
		C541.4,341.2,543.7,338.8,543.7,336L543.7,336z"/>
	<path class="st0" d="M534.9,280.5c1.4,0,2.5,1.1,2.5,2.5v35.4c0,1.4-1.1,2.5-2.5,2.5h-72.1c-1.4,0-2.5-1.1-2.5-2.5V283
		c0-1.4,1.1-2.5,2.5-2.5H534.9 M534.9,274.2h-72.1c-4.9,0-8.8,3.9-8.8,8.8v35.4c0,4.9,3.9,8.8,8.8,8.8h72.1c4.9,0,8.8-3.9,8.8-8.8
		V283C543.7,278.1,539.8,274.2,534.9,274.2L534.9,274.2z"/>
	<path class="st0" d="M494.3,274.2c0-2.5,2-4.5,4.5-4.5c2.5,0,4.5,2,4.5,4.5c0,2.5-2,4.5-4.5,4.5
		C496.4,278.7,494.3,276.7,494.3,274.2z"/>
	<path class="st0" d="M496.5,274.2c0-1.3,1-2.3,2.3-2.3c1.3,0,2.3,1,2.3,2.3c0,1.3-1,2.3-2.3,2.3
		C497.6,276.5,496.5,275.5,496.5,274.2z"/>
</g>
<g>
	<g>
		<g>
			<path class="st0" d="M301.2,71.4c0,1.3,1.1,2.4,2.4,2.4c7,0,12.7,5.6,12.7,12.6c0,1.3,1.1,2.4,2.4,2.4c1.3,0,2.4-1.1,2.4-2.4
				c0,0,0,0,0,0c-0.1-9.6-7.9-17.4-17.6-17.4C302.2,68.9,301.2,70,301.2,71.4z"/>
		</g>
	</g>
	<g>
		<g>
			<path class="st0" d="M301.1,61.2c0,1.3,1.1,2.4,2.4,2.4c6.1,0,11.8,2.3,16.2,6.6c4.3,4.3,6.7,10,6.8,16.1c0,1.3,1.1,2.4,2.4,2.4
				c1.3,0,2.4-1.1,2.4-2.4c0-7.4-2.9-14.3-8.2-19.5c-5.2-5.2-12.2-8-19.6-8C302.2,58.8,301.1,59.9,301.1,61.2z"/>
		</g>
	</g>
	<path class="st0" d="M326.2,106.1c-11.5,11.5-30,11.5-41.5,0c-11.5-11.5-11.5-30,0-41.5L326.2,106.1z"/>
	<path class="st0" d="M276.5,106.1c0-4.5,3.6-8.1,8.1-8.1c4.5,0,8.1,3.6,8.1,8.1c0,4.5-3.6,8.1-8.1,8.1
		C280.2,114.2,276.5,110.6,276.5,106.1z"/>
	<g>
		<g>
			<path class="st0" d="M269.7,137c-0.4,0-0.8-0.1-1.2-0.3c-1.2-0.6-1.7-2.1-1-3.4l13.7-26.1c0.6-1.2,2.1-1.7,3.4-1
				c1.2,0.6,1.7,2.1,1,3.4l-13.7,26.1C271.5,136.5,270.6,137,269.7,137z"/>
		</g>
	</g>
	<g>
		<g>
			<path class="st0" d="M301.1,137c-0.9,0-1.7-0.5-2.2-1.3l-14.7-26.1c-0.7-1.2-0.2-2.7,0.9-3.4c1.2-0.7,2.7-0.3,3.4,0.9l14.7,26.1
				c0.7,1.2,0.3,2.7-0.9,3.4C302,136.9,301.5,137,301.1,137z"/>
		</g>
	</g>
	<g>
		<g>
			<path class="st0" d="M272.5,132.5c-0.4,0-0.8-0.2-1-0.5c-0.4-0.6-0.3-1.3,0.3-1.7l18.4-12.8c0.6-0.4,1.3-0.3,1.7,0.3
				c0.4,0.6,0.2,1.3-0.3,1.7l-18.4,12.8C273,132.4,272.8,132.5,272.5,132.5z"/>
		</g>
	</g>
	<g>
		<g>
			<path class="st0" d="M297.7,132.5c-0.2,0-0.5-0.1-0.7-0.2l-18.4-12.8c-0.6-0.4-0.7-1.2-0.3-1.7c0.4-0.6,1.2-0.7,1.7-0.3
				l18.4,12.8c0.6,0.4,0.7,1.2,0.3,1.7C298.5,132.3,298.1,132.5,297.7,132.5z"/>
		</g>
	</g>
</g>
<g>
	<g>
		<g>
			<path class="st0" d="M110.1,62.3c-1,1-1,2.6,0,3.6c5.3,5.2,5.3,13.8,0.1,19.1c-1,1-1,2.6,0,3.6c1,1,2.6,1,3.6,0c0,0,0,0,0,0
				c7.2-7.3,7.2-19.2-0.1-26.4C112.7,61.3,111.1,61.3,110.1,62.3z"/>
		</g>
	</g>
	<g>
		<g>
			<path class="st0" d="M117.7,54.6c-1,1-1,2.6,0,3.6c4.6,4.6,7.2,10.7,7.2,17.2c0,6.5-2.5,12.7-7.1,17.3c-1,1-1,2.6,0,3.6
				c1,1,2.6,1,3.6,0c5.6-5.6,8.6-13,8.5-20.9c0-7.9-3.2-15.3-8.8-20.8C120.4,53.6,118.7,53.6,117.7,54.6z"/>
		</g>
	</g>
	<g>
		<g>
			<path class="st0" d="M89.2,88.6c1-1,1-2.6,0-3.6c-5.3-5.2-5.3-13.8-0.1-19.1c1-1,1-2.6,0-3.6c-1-1-2.6-1-3.6,0c0,0,0,0,0,0
				c-7.2,7.3-7.2,19.2,0.1,26.4C86.6,89.7,88.2,89.6,89.2,88.6z"/>
		</g>
	</g>
	<g>
		<g>
			<path class="st0" d="M81.6,96.3c1-1,1-2.6,0-3.6c-4.6-4.6-7.2-10.7-7.2-17.2c0-6.5,2.5-12.7,7.1-17.3c1-1,1-2.6,0-3.6
				c-1-1-2.6-1-3.6,0c-5.5,5.6-8.6,13-8.5,20.9c0,7.9,3.2,15.3,8.8,20.8C78.9,97.4,80.6,97.4,81.6,96.3z"/>
		</g>
	</g>
	<path class="st0" d="M91.2,76c0-4.7,3.8-8.5,8.5-8.5c4.7,0,8.5,3.8,8.5,8.5c0,4.7-3.8,8.5-8.5,8.5C95,84.5,91.2,80.7,91.2,76z"/>
	<path class="st0" d="M120.7,139.2l-19-62.7c0.3-1.1-0.3-2.2-1.4-2.6c-0.2-0.1-0.5-0.1-0.7-0.1c-0.3,0-0.6,0-0.8,0.1
		c-1.1,0.3-1.7,1.5-1.4,2.6l-18.9,62.7c-0.3,1.1,0.3,2.3,1.4,2.6c0.2,0.1,0.4,0.1,0.6,0.1c0.9,0,1.7-0.6,2-1.5l1.5-5.1l15.7-11.5
		l15.4,11.3l1.6,5.3c0.3,0.9,1.1,1.5,2,1.5c0.2,0,0.4,0,0.6-0.1C120.4,141.5,121,140.3,120.7,139.2z M93,105.3
		C93,105.3,93,105.3,93,105.3l4.4,3.2l-6.9,5L93,105.3z M93.7,102.9l5.7-19.1l5.8,19.1c-0.2,0-0.3,0.1-0.5,0.2l-5.2,3.8l-5.2-3.8
		C94.2,103,94,102.9,93.7,102.9z M99.6,110.1l6.4,4.7l-6.4,4.7l-6.4-4.7L99.6,110.1z M101.9,108.5l4.2-3l2.4,7.8L101.9,108.5z
		 M85.7,129.7l3.6-12.1l1-0.7c0.1,0.2,0.2,0.3,0.4,0.4l6,4.3L85.7,129.7z M102.7,121.7l6-4.3c0.2-0.1,0.3-0.3,0.4-0.4l0.7,0.5
		l3.7,12.1L102.7,121.7z"/>
</g>
<g>
	<g>
		<g>
			<path class="st0" d="M488.8,67.5c0.8,0.8,2,0.8,2.8,0c4-4,10.6-4.1,14.6-0.1c0.8,0.8,2,0.8,2.8,0c0.8-0.8,0.8-2,0-2.8
				c0,0,0,0,0,0c-5.6-5.5-14.6-5.5-20.2,0.1C488,65.5,488,66.8,488.8,67.5z"/>
		</g>
	</g>
	<g>
		<g>
			<path class="st0" d="M482.9,61.7c0.8,0.8,2,0.8,2.8,0c3.5-3.5,8.2-5.5,13.1-5.5c5,0,9.7,1.9,13.2,5.4c0.8,0.8,2,0.8,2.8,0
				c0.8-0.8,0.8-2,0-2.8c-4.3-4.2-9.9-6.5-16-6.5c-6,0-11.7,2.4-15.9,6.7C482.1,59.7,482.1,60.9,482.9,61.7z"/>
		</g>
	</g>
	<path class="st0" d="M512.2,73.1h-26.7c-3.1,0-5.6,2.5-5.6,5.6v56.9c0,2.1,1.2,4,3,5c2.5,1.7,8.7,2.9,16,2.9c7.2,0,13.4-1.2,16-2.9
		c1.8-0.9,3-2.8,3-5V78.8C517.8,75.7,515.3,73.1,512.2,73.1z"/>
	<path class="st2" d="M507.4,139c0,1.3-3.8,2.3-8.5,2.3c-4.7,0-8.5-1-8.5-2.3c0-1.3,3.8-2.3,8.5-2.3
		C503.6,136.7,507.4,137.7,507.4,139z"/>
	<path class="st2" d="M486.3,84.6c0-1.6,1.3-2.9,2.9-2.9c1.6,0,2.9,1.3,2.9,2.9c0,1.6-1.3,2.9-2.9,2.9
		C487.6,87.5,486.3,86.2,486.3,84.6z"/>
	<path class="st2" d="M495.5,84.6c0-1.6,1.3-2.9,2.9-2.9c1.6,0,2.9,1.3,2.9,2.9c0,1.6-1.3,2.9-2.9,2.9
		C496.9,87.5,495.5,86.2,495.5,84.6z"/>
	<path class="st2" d="M504.8,84.6c0-1.6,1.3-2.9,2.9-2.9c1.6,0,2.9,1.3,2.9,2.9c0,1.6-1.3,2.9-2.9,2.9
		C506.1,87.5,504.8,86.2,504.8,84.6z"/>
	<path class="st2" d="M486.3,93.5c0-1.6,1.3-2.9,2.9-2.9c1.6,0,2.9,1.3,2.9,2.9c0,1.6-1.3,2.9-2.9,2.9
		C487.6,96.4,486.3,95.1,486.3,93.5z"/>
	<path class="st2" d="M495.5,93.5c0-1.6,1.3-2.9,2.9-2.9c1.6,0,2.9,1.3,2.9,2.9c0,1.6-1.3,2.9-2.9,2.9
		C496.9,96.4,495.5,95.1,495.5,93.5z"/>
	<path class="st2" d="M504.8,93.5c0-1.6,1.3-2.9,2.9-2.9c1.6,0,2.9,1.3,2.9,2.9c0,1.6-1.3,2.9-2.9,2.9
		C506.1,96.4,504.8,95.1,504.8,93.5z"/>
	<g>
		<path class="st2" d="M498.5,128.5c-7.1,0-12.9-5.8-12.9-12.9c0-7.1,5.8-12.9,12.9-12.9c7.1,0,12.9,5.8,12.9,12.9
			C511.4,122.7,505.6,128.5,498.5,128.5z M498.5,104.2c-6.2,0-11.3,5.1-11.3,11.3c0,6.3,5.1,11.3,11.3,11.3
			c6.3,0,11.3-5.1,11.3-11.3C509.8,109.3,504.7,104.2,498.5,104.2z"/>
	</g>
	<polygon class="st2" points="495.5,111.9 498.5,106.8 501.4,111.9 	"/>
	<polygon class="st2" points="501.4,119.5 498.5,124.6 495.5,119.5 	"/>
	<polygon class="st2" points="494.7,118.6 489.6,115.7 494.7,112.7 	"/>
	<polygon class="st2" points="502.3,112.7 507.4,115.7 502.3,118.6 	"/>
</g>
<g>
	<g>
		<path class="st0" d="M85.6,466c1,1,2.6,1,3.7,0c5.3-5.3,13.9-5.4,19.2-0.1c1,1,2.6,1,3.6,0c1-1,1-2.6,0-3.6c0,0,0,0,0,0
			c-7.3-7.3-19.2-7.2-26.5,0.1C84.6,463.4,84.6,465,85.6,466z"/>
	</g>
	<g>
		<path class="st0" d="M77.9,458.4c1,1,2.6,1,3.7,0c4.6-4.6,10.7-7.2,17.2-7.2c6.5,0,12.7,2.5,17.3,7.1c1,1,2.6,1,3.7,0
			c1-1,1-2.6,0-3.7c-5.6-5.6-13.1-8.6-21-8.6c-7.9,0-15.3,3.2-20.9,8.8C76.8,455.7,76.8,457.4,77.9,458.4z"/>
	</g>
	<path class="st0" d="M125.7,542.6c0,3.1-2.5,5.6-5.6,5.6H79.2c-3.1,0-5.6-2.5-5.6-5.6v-65.3c0-3.1,2.5-5.6,5.6-5.6h40.9
		c3.1,0,5.6,2.5,5.6,5.6V542.6z"/>
	<path class="st3" d="M121.4,533.9c0,1.9-1.6,3.5-3.5,3.5H81.4c-1.9,0-3.5-1.6-3.5-3.5v-53.6c0-1.9,1.6-3.5,3.5-3.5h36.5
		c1.9,0,3.5,1.6,3.5,3.5V533.9z"/>
	<path class="st3" d="M96.7,542.5c0-1.4,1.2-2.6,2.6-2.6c1.4,0,2.6,1.2,2.6,2.6c0,1.4-1.2,2.6-2.6,2.6
		C97.8,545.1,96.7,543.9,96.7,542.5z"/>
</g>
<g>
	<g>
		<path class="st0" d="M281,479.2c1.1,1.1,2.9,1.1,3.9,0c5.7-5.7,15-5.8,20.7-0.1c1.1,1.1,2.9,1.1,3.9,0c1.1-1.1,1.1-2.9,0-3.9
			c0,0,0,0,0,0c-7.9-7.8-20.7-7.8-28.6,0.1C279.9,476.4,279.9,478.1,281,479.2z"/>
	</g>
	<g>
		<path class="st0" d="M272.6,470.9c1.1,1.1,2.9,1.1,3.9,0c5-5,11.6-7.8,18.6-7.8c7,0,13.7,2.7,18.7,7.6c1.1,1.1,2.9,1.1,3.9,0
			c1.1-1.1,1.1-2.9,0-3.9c-6.1-6-14.1-9.3-22.6-9.2c-8.5,0-16.5,3.4-22.5,9.5C271.5,468.1,271.5,469.9,272.6,470.9z"/>
	</g>
	<path class="st0" d="M322.1,536.6c10.7,0,19.3-8.7,19.3-19.3c0-9.8-7.2-17.8-16.7-19.1c-2.3-4.2-6.4-7.2-11.3-7.9
		c-4.7-3.7-10.6-5.9-17.1-5.9c-12.1,0-22.4,7.8-26.2,18.7c-7.6,1.5-13.3,8.2-13.3,16.2c0,9.1,7.4,16.5,16.5,16.5L322.1,536.6z"/>
</g>
<g>
	<g>
		<g>
			<path class="st0" d="M484.6,473.5c1.1,1.1,2.9,1.1,3.9,0c5.7-5.7,15-5.8,20.7-0.1c1.1,1.1,2.9,1.1,3.9,0c1.1-1.1,1.1-2.9,0-3.9
				c0,0,0,0,0,0c-7.9-7.8-20.7-7.8-28.6,0.1C483.5,470.6,483.5,472.4,484.6,473.5z"/>
		</g>
	</g>
	<g>
		<g>
			<path class="st0" d="M476.3,465.2c1.1,1.1,2.9,1.1,3.9,0c5-5,11.6-7.8,18.6-7.8c7,0,13.7,2.7,18.7,7.6c1.1,1.1,2.9,1.1,3.9,0
				c1.1-1.1,1.1-2.9,0-3.9c-6.1-6-14.1-9.3-22.6-9.2c-8.5,0-16.5,3.4-22.5,9.5C475.2,462.4,475.2,464.1,476.3,465.2z"/>
		</g>
	</g>
	<path class="st0" d="M500.4,477.5v11.8c2.8,0.7,4.9,3.2,4.9,6.3v11c0,3.6-2.9,6.4-6.4,6.4c-3.6,0-6.4-2.9-6.4-6.4v-11
		c0-3,2.1-5.6,4.9-6.3v-11.8c-12.4,0.8-22.3,11.1-22.3,23.7v17.4c0,13.1,10.6,23.8,23.8,23.8c13.1,0,23.8-10.6,23.8-23.8v-17.4
		C522.6,488.6,512.8,478.2,500.4,477.5z"/>
	<path class="st0" d="M495.2,495.5c0-2,1.6-3.6,3.6-3.6l0,0c2,0,3.6,1.6,3.6,3.6v11c0,2-1.6,3.6-3.6,3.6l0,0c-2,0-3.6-1.6-3.6-3.6
		V495.5z"/>
</g>
</svg>
